<?xml version="1.0" encoding="UTF-8" standalone="no"?>
<!-- Generator: Adobe Illustrator 22.1.0, SVG Export Plug-In . SVG Version: 6.00 Build 0)  -->

<svg
   xmlns:dc="http://purl.org/dc/elements/1.1/"
   xmlns:cc="http://creativecommons.org/ns#"
   xmlns:rdf="http://www.w3.org/1999/02/22-rdf-syntax-ns#"
   xmlns:svg="http://www.w3.org/2000/svg"
   xmlns="http://www.w3.org/2000/svg"
   xmlns:xlink="http://www.w3.org/1999/xlink"
   xmlns:sodipodi="http://sodipodi.sourceforge.net/DTD/sodipodi-0.dtd"
   xmlns:inkscape="http://www.inkscape.org/namespaces/inkscape"
   version="1.1"
   id="Ebene_1"
   x="0px"
   y="0px"
   viewBox="0 0 841.9 792"
   style="enable-background:new 0 0 841.9 792;"
   xml:space="preserve"
   sodipodi:docname="icon.svg"
   inkscape:version="0.92.3 (2405546, 2018-03-11)"><metadata
   id="metadata27"><rdf:RDF><cc:Work
       rdf:about=""><dc:format>image/svg+xml</dc:format><dc:type
         rdf:resource="http://purl.org/dc/dcmitype/StillImage" /></cc:Work></rdf:RDF></metadata><defs
   id="defs25" /><sodipodi:namedview
   pagecolor="#ffffff"
   bordercolor="#666666"
   borderopacity="1"
   objecttolerance="10"
   gridtolerance="10"
   guidetolerance="10"
   inkscape:pageopacity="0"
   inkscape:pageshadow="2"
   inkscape:window-width="1920"
   inkscape:window-height="1017"
   id="namedview23"
   showgrid="false"
   inkscape:zoom="0.2979798"
   inkscape:cx="420.95001"
   inkscape:cy="396"
   inkscape:window-x="-8"
   inkscape:window-y="-8"
   inkscape:window-maximized="1"
   inkscape:current-layer="Ebene_1" />
<style
   type="text/css"
   id="style2">
	.st0{fill:none;stroke:#000000;stroke-width:4;stroke-miterlimit:10;}
	.st1{clip-path:url(#SVGID_2_);fill:#FFFFFF;stroke:#000000;stroke-width:4;stroke-miterlimit:10;}
</style>
<g
   id="g6">
	<path
   class="st0"
   d="M735.5,685.3c0,15.6-12.8,28.3-28.3,28.3H125.7c-15.6,0-28.3-12.8-28.3-28.3V103.8c0-15.6,12.8-28.3,28.3-28.3   h581.4c15.6,0,28.3,12.8,28.3,28.3V685.3z"
   id="path4" />
</g>
<g
   id="g10">
	<path
   d="M751.4,9.8c27.4,0,49.7,22.3,49.7,49.7v670c0,27.4-22.3,49.7-49.7,49.7h-670c-27.4,0-49.7-22.3-49.7-49.7v-670   C31.7,32.1,54,9.8,81.4,9.8H751.4 M751.4,2.8h-670c-31.2,0-56.7,25.5-56.7,56.7v670c0,31.2,25.5,56.7,56.7,56.7h670   c31.2,0,56.7-25.5,56.7-56.7v-670C808.1,28.4,782.6,2.8,751.4,2.8L751.4,2.8z"
   id="path8" />
</g>
<g
   id="g20">
	<defs
   id="defs13">
		<rect
   id="SVGID_1_"
   x="24.7"
   y="10"
   width="783.4"
   height="776.2" />
	</defs>
	<clipPath
   id="SVGID_2_">
		<use
   xlink:href="#SVGID_1_"
   style="overflow:visible;"
   id="use15" />
	</clipPath>
	<ellipse
   class="st1"
   cx="416.4"
   cy="75.8"
   rx="92.1"
   ry="151.8"
   clip-path="url(#SVGID_2_)"
   id="ellipse18" />
</g>
<g
   transform="matrix(2.8615513,0,0,2.8615513,248.21537,345.41161)"
   id="g32"><path
     inkscape:connector-curvature="0"
     d="m 40.8,106.9 c -0.6,2.5 -1.2,5.1 -1.9,7.6 -0.1,0.4 -0.2,0.8 -0.3,1.3 0,0.2 -0.1,0.2 -0.2,0.2 -2.2,0 -4.3,0 -6.5,0 -0.1,0 -0.3,0 -0.4,0 -0.3,-0.1 -0.6,-0.2 -0.6,-0.5 -0.1,-0.2 0.1,-0.6 0.1,-0.6 0.3,-1.4 0.6,-2.7 1,-4 0.1,-0.5 0.4,-0.9 1,-1 0.2,0 0.4,-0.1 0.6,-0.1 1.5,0 3,0 4.6,0 0.2,0 0.2,-0.1 0.3,-0.2 0.2,-0.9 0.4,-1.7 0.6,-2.6 0.5,-0.1 1.1,-0.1 1.7,-0.1 z m -5.9,8 c 0.6,0 1.2,0 1.8,0 0.3,0 0.4,0 0.4,-0.4 0.3,-1.1 0.5,-2.2 0.8,-3.4 0.1,-0.3 0,-0.3 -0.2,-0.3 -1.2,0 -2.4,0 -3.6,0 -0.3,0 -0.4,0 -0.5,0.4 -0.3,1.1 -0.5,2.2 -0.8,3.4 -0.1,0.3 0,0.3 0.2,0.3 0.7,0 1.3,0 1.9,0 z"
     id="path20" /><path
     inkscape:connector-curvature="0"
     d="m 48.2,114.9 c -0.1,0.3 -0.2,0.6 -0.2,0.9 0,0.2 -0.1,0.2 -0.2,0.2 -0.7,0 -1.4,0 -2,0 -1.5,0 -2.9,0 -4.4,0 -0.2,0 -0.4,0 -0.6,-0.1 -0.3,-0.1 -0.5,-0.3 -0.5,-0.7 0,-0.2 0,-0.4 0.1,-0.6 0.3,-1.2 0.6,-2.5 0.9,-3.7 0.2,-0.7 0.5,-1 1.1,-1.1 0.2,0 0.4,0 0.5,0 1.7,0 3.5,0 5.2,0 0.1,0 0.2,0 0.2,0 0.7,0.1 0.9,0.5 0.8,1.2 -0.2,0.9 -0.4,1.7 -0.6,2.6 0,0.2 -0.1,0.2 -0.2,0.2 -0.8,0 -1.6,0 -2.3,0 -1.1,0 -2.3,0 -3.4,0 -0.2,0 -0.2,0 -0.3,0.2 0,0.2 -0.1,0.4 -0.2,0.7 -0.1,0.3 0,0.4 0.3,0.4 0.5,0 1.1,0 1.6,0 1.3,0 2.6,0 3.9,0 0.1,-0.2 0.2,-0.2 0.3,-0.2 z m -5.6,-2.2 c 0.1,0 0.1,0 0,0 1.5,0 2.9,0 4.2,0 0.1,0 0.1,-0.1 0.2,-0.2 0.1,-0.5 0.2,-1 0.4,-1.5 0.1,-0.2 0,-0.3 -0.2,-0.3 -1.3,0 -2.5,0 -3.8,0 -0.2,0 -0.3,0.1 -0.3,0.3 -0.2,0.6 -0.4,1.1 -0.5,1.7 z"
     id="path22" /><path
     inkscape:connector-curvature="0"
     d="m 76.5,115.9 c -0.9,0 -1.8,0 -2.7,0 -0.2,0 -0.4,0 -0.6,-0.1 -0.3,-0.1 -0.4,-0.3 -0.4,-0.7 0,-0.2 0,-0.4 0.1,-0.6 0.3,-1.2 0.6,-2.4 0.9,-3.7 0.2,-0.9 0.5,-1.2 1.4,-1.2 1.9,0 3.8,0 5.7,0 0.1,0 0.3,0 0.4,0.1 0.3,0.1 0.5,0.3 0.5,0.7 0,0.2 0,0.4 -0.1,0.7 -0.3,1.2 -0.6,2.5 -0.9,3.7 0,0.1 0,0.1 -0.1,0.2 -0.1,0.6 -0.5,0.9 -1,0.9 -1.2,0 -2.2,0 -3.2,0 z m 1.2,-5.1 c -0.6,0 -1.2,0 -1.9,0 -0.3,0 -0.4,0.1 -0.4,0.4 -0.3,1.1 -0.5,2.3 -0.8,3.4 -0.1,0.3 0,0.3 0.2,0.3 1.3,0 2.5,0 3.8,0 0.2,0 0.3,-0.1 0.4,-0.3 0.3,-1.1 0.6,-2.3 0.8,-3.4 0.1,-0.3 0,-0.3 -0.2,-0.3 -0.7,-0.1 -1.3,-0.1 -1.9,-0.1 z"
     id="path24" /><path
     inkscape:connector-curvature="0"
     d="m 60.3,115.9 c -0.9,0 -1.8,0 -2.6,0 -0.1,0 -0.2,0 -0.3,0 -0.7,-0.1 -1,-0.5 -0.8,-1.2 0.2,-1 0.5,-2 0.7,-3 0.1,-0.3 0.1,-0.5 0.2,-0.8 0.2,-0.9 0.6,-1.2 1.4,-1.2 1.9,0 3.7,0 5.6,0 0.7,0 1,0.5 0.9,1.2 v 0.1 c -0.3,1.3 -0.6,2.5 -0.9,3.8 0,0.1 -0.1,0.2 -0.1,0.3 -0.1,0.5 -0.4,0.7 -0.9,0.7 -0.2,0 -0.5,0 -0.7,0 -0.9,0.1 -1.7,0.1 -2.5,0.1 z m 0.1,-1 c 0.6,0 1.2,0 1.9,0 0.3,0 0.4,-0.1 0.4,-0.4 0.3,-1.1 0.5,-2.2 0.8,-3.3 0.1,-0.3 0,-0.4 -0.3,-0.4 -1.2,0 -2.4,0 -3.6,0 -0.4,0 -0.4,0 -0.6,0.5 -0.3,1.1 -0.5,2.2 -0.8,3.2 -0.1,0.3 0,0.4 0.3,0.4 0.7,0 1.3,0 1.9,0 z"
     id="path26" /><path
     inkscape:connector-curvature="0"
     d="m 50,109.7 c 0.4,0 0.8,0 1.2,0 0.5,0 0.5,0 0.6,0.6 0.2,1.3 0.5,2.5 0.8,3.8 0,0 0,0.1 0,0.2 0.1,-0.1 0.1,-0.2 0.1,-0.2 0.8,-1.4 1.7,-2.7 2.5,-4.1 0.1,-0.2 0.2,-0.2 0.4,-0.2 0.4,0 0.9,0 1.3,0 -0.1,0.1 -0.1,0.2 -0.1,0.2 -1.2,2 -2.5,3.9 -3.7,5.9 -0.1,0.1 -0.2,0.2 -0.3,0.2 -0.4,0 -0.8,0 -1.2,0 -0.2,0 -0.2,0 -0.3,-0.2 -0.4,-1.8 -0.8,-3.5 -1.2,-5.2 0,-0.5 -0.1,-0.7 -0.1,-1 z"
     id="path28" /><path
     inkscape:connector-curvature="0"
     d="m 69.2,109.7 c -0.2,0.9 -0.4,1.7 -0.6,2.5 -0.2,0.8 -0.4,1.6 -0.6,2.4 -0.1,0.3 0,0.3 0.2,0.3 1.2,0 2.5,0 3.7,0 0.1,0 0.2,0 0.3,0 -0.1,0.3 -0.2,0.7 -0.2,1 0,0 -0.1,0.1 -0.2,0.1 -1.5,0 -2.9,0 -4.4,0 -0.2,0 -0.5,0 -0.7,0 -0.5,0 -0.7,-0.3 -0.6,-0.9 0.4,-1.7 0.8,-3.5 1.3,-5.2 0,-0.1 0.1,-0.2 0.2,-0.2 0.4,0 1,0 1.6,0 z"
     id="path30" /></g></svg>